<svg xmlns="http://www.w3.org/2000/svg">
    <symbol id="telegram" viewBox="0 0 21 17" fill="none">
        <path d="M18.8044 0.706432L1.79691 7.32338C0.636219 7.79374 0.642934 8.44701 1.58396 8.73832L5.95047 10.1126L16.0533 3.68149C16.531 3.38824 16.9675 3.546 16.6087 3.86731L8.42341 11.3205H8.42149L8.42341 11.3214L8.12221 15.8624C8.56346 15.8624 8.75819 15.6582 9.00568 15.4172L11.1266 13.3364L15.5382 16.6241C16.3516 17.076 16.9358 16.8438 17.1382 15.8643L20.0342 2.09428C20.3306 0.895156 19.5805 0.352212 18.8044 0.706432Z" fill="currentColor"/>
    </symbol>
    <symbol id="twitter" viewBox="0 0 21 16" fill="none">
        <path d="M20.5 1.89789C19.7645 2.21861 18.9744 2.43531 18.1438 2.53326C19.0008 2.0286 19.642 1.23432 19.9477 0.298631C19.1425 0.769299 18.2613 1.1006 17.3422 1.27812C16.7242 0.628768 15.9057 0.198364 15.0136 0.0537355C14.1216 -0.0908933 13.206 0.0583448 12.409 0.47828C11.6119 0.898215 10.9781 1.56535 10.6058 2.37611C10.2336 3.18688 10.1437 4.0959 10.3503 4.96206C8.7187 4.88144 7.12259 4.46412 5.66553 3.73718C4.20847 3.01023 2.92301 1.98991 1.89258 0.742437C1.54025 1.34053 1.33766 2.03398 1.33766 2.7725C1.33727 3.43734 1.50364 4.09199 1.82201 4.67838C2.14038 5.26477 2.60091 5.76476 3.16273 6.13398C2.51117 6.11358 1.87397 5.94032 1.30419 5.62863V5.68064C1.30413 6.6131 1.63189 7.51687 2.23186 8.23859C2.83184 8.96031 3.66707 9.45553 4.59583 9.64022C3.9914 9.8012 3.35769 9.82491 2.74258 9.70957C3.00462 10.5119 3.51506 11.2135 4.20243 11.7162C4.8898 12.2188 5.71969 12.4974 6.57593 12.5128C5.12242 13.6357 3.32735 14.2448 1.47948 14.2421C1.15215 14.2422 0.825091 14.2234 0.5 14.1858C2.37569 15.3726 4.55914 16.0024 6.78909 16C14.3378 16 18.4644 9.84739 18.4644 4.51132C18.4644 4.33796 18.46 4.16286 18.4521 3.9895C19.2548 3.41825 19.9476 2.71087 20.4982 1.90049L20.5 1.89789Z" fill="currentColor"/>
    </symbol>
    <symbol id="discord" viewBox="0 0 21 15" fill="none">
        <path d="M13.2204 0.799805C13.0301 1.12228 12.8604 1.45532 12.7125 1.7971C11.2584 1.57955 9.7773 1.57955 8.32327 1.7971C8.17529 1.45532 8.00568 1.12228 7.81535 0.799805C6.44568 1.02121 5.11418 1.41771 3.85741 1.97843C1.61004 5.04673 0.590846 8.77178 0.982388 12.4863C2.44696 13.5279 4.09072 14.3223 5.84117 14.8345C6.23976 14.3364 6.59548 13.8088 6.90493 13.2569C6.33383 13.0577 5.78491 12.8057 5.26617 12.5044C5.40844 12.4149 5.54303 12.3148 5.66867 12.2052C7.18137 12.8946 8.83883 13.2525 10.5179 13.2525C12.1969 13.2525 13.8544 12.8946 15.3671 12.2052C15.5012 12.314 15.6354 12.4138 15.7696 12.5044C15.248 12.8033 14.6996 13.0581 14.1308 13.266C14.4274 13.8304 14.7736 14.3702 15.1658 14.8798C16.9141 14.3694 18.555 13.5748 20.015 12.5316C20.416 8.81643 19.3959 5.08834 17.14 2.02376C15.8973 1.45144 14.579 1.03976 13.2204 0.799805ZM7.33618 10.3648C6.85661 10.3322 6.40903 10.1251 6.08739 9.78704C5.76575 9.44895 5.59506 9.00612 5.61117 8.55151C5.59263 8.09631 5.76248 7.65221 6.0846 7.3136C6.40672 6.975 6.85573 6.76859 7.33618 6.73825C7.81663 6.76859 8.26564 6.975 8.58776 7.3136C8.90988 7.65221 9.07973 8.09631 9.06119 8.55151C9.07973 9.00672 8.90988 9.45081 8.58776 9.78942C8.26564 10.128 7.81663 10.3344 7.33618 10.3648ZM13.6996 10.3648C13.22 10.3322 12.7724 10.1251 12.4508 9.78704C12.1291 9.44895 11.9584 9.00612 11.9745 8.55151C11.956 8.09631 12.1259 7.65221 12.448 7.3136C12.7701 6.975 13.2191 6.76859 13.6996 6.73825C14.1809 6.76633 14.6314 6.97207 14.954 7.31119C15.2766 7.65031 15.4456 8.0957 15.4246 8.55151C15.4456 9.00732 15.2766 9.45271 14.954 9.79183C14.6314 10.131 14.1809 10.3367 13.6996 10.3648Z" fill="currentColor"/>
    </symbol>
    <symbol id="youtube" viewBox="0 0 20 16" fill="none">
        <path d="M19.6004 8.0502C19.5809 8.79483 19.5766 9.53947 19.5377 10.2818C19.4967 11.0725 19.4621 11.8679 19.2828 12.6425C19.1618 13.1612 19.0062 13.6684 18.6606 14.0787C18.2349 14.5836 17.7034 14.8879 17.0661 14.9363C16.137 15.0055 15.208 15.0631 14.2768 15.1046C13.4212 15.1438 12.5657 15.16 11.7101 15.1761C10.8977 15.1922 10.0854 15.2061 9.27516 15.1968C8.34828 15.1853 7.42141 15.1484 6.49238 15.1185C5.62168 15.0908 4.75314 15.0608 3.88244 15.0239C3.32502 14.9986 2.77409 14.9433 2.24259 14.7335C1.61171 14.4868 1.17312 14.0303 0.918179 13.3641C0.717249 12.8361 0.60274 12.2944 0.568172 11.725C0.537924 11.227 0.479589 10.7313 0.449342 10.2357C0.423415 9.8115 0.416934 9.38501 0.412612 8.95851C0.40397 8.25999 0.395328 7.56146 0.40397 6.86293C0.416934 5.86932 0.473108 4.87801 0.598419 3.89131C0.678359 3.25272 0.84256 2.63949 1.19041 2.10004C1.56418 1.52139 2.08703 1.19172 2.73304 1.08567C3.42225 0.972712 4.1201 0.940437 4.81796 0.921994C5.92632 0.889719 7.03251 0.845916 8.14087 0.822863C9.07423 0.80442 10.0097 0.792893 10.9431 0.80442C11.9089 0.813641 12.8768 0.850527 13.8425 0.880497C14.5361 0.901245 15.2296 0.921994 15.9231 0.951963C16.4482 0.975017 16.9732 1.00499 17.4831 1.141C18.2911 1.36001 18.8118 1.92022 19.1078 2.73863C19.285 3.22967 19.38 3.73455 19.4146 4.25786C19.447 4.75813 19.5032 5.2584 19.5356 5.75866C19.5593 6.15749 19.5658 6.55632 19.5723 6.95515C19.5788 7.3194 19.5745 7.68364 19.5745 8.04789C19.5809 8.0502 19.5917 8.0502 19.6004 8.0502ZM8.02852 10.6437C9.75048 9.69162 11.4595 8.74411 13.1836 7.78969C11.4573 6.82835 9.74832 5.87623 8.02852 4.9172C8.02852 6.83296 8.02852 8.72798 8.02852 10.6437Z" fill="currentColor"/>
    </symbol>
</svg>